<svg width="44" height="44" viewBox="0 0 44 44" fill="none" xmlns="http://www.w3.org/2000/svg">
<path d="M44 21.9999C44 28.0751 41.5376 33.5751 37.5564 37.5563C33.5751 41.5375 28.0751 43.9999 22 43.9999C15.9249 43.9999 10.4249 41.5375 6.44365 37.5563C2.46243 33.5751 0 28.0751 0 21.9999C0 15.9248 2.46243 10.4248 6.44365 6.44359C10.4249 2.46237 15.9249 -6.10352e-05 22 -6.10352e-05C28.0751 -6.10352e-05 33.5751 2.46237 37.5564 6.44359C41.5376 10.4248 44 15.9248 44 21.9999Z" fill="white" fill-opacity="0.1"/>
<path d="M32 15.9238C31.2562 16.25 30.4637 16.4662 29.6375 16.5712C30.4875 16.0637 31.1363 15.2662 31.4413 14.305C30.6488 14.7775 29.7737 15.1113 28.8412 15.2975C28.0887 14.4963 27.0162 14 25.8462 14C23.5762 14 21.7487 15.8425 21.7487 18.1013C21.7487 18.4263 21.7762 18.7387 21.8438 19.0362C18.435 18.87 15.4188 17.2363 13.3925 14.7475C13.0387 15.3613 12.8313 16.0638 12.8313 16.82C12.8313 18.24 13.5625 19.4987 14.6525 20.2275C13.9937 20.215 13.3475 20.0238 12.8 19.7225C12.8 19.735 12.8 19.7512 12.8 19.7675C12.8 21.76 14.2212 23.415 16.085 23.7962C15.7512 23.8875 15.3875 23.9312 15.01 23.9312C14.7475 23.9312 14.4825 23.9162 14.2337 23.8612C14.765 25.485 16.2725 26.6787 18.065 26.7175C16.67 27.8087 14.8988 28.4662 12.9813 28.4662C12.645 28.4662 12.3225 28.4512 12 28.41C13.8162 29.5812 15.9688 30.25 18.29 30.25C25.835 30.25 29.96 24 29.96 18.5825C29.96 18.4012 29.9537 18.2263 29.945 18.0525C30.7587 17.475 31.4425 16.7538 32 15.9238Z" fill="white"/>
</svg>
